<svg xmlns="http://www.w3.org/2000/svg" width="261" height="73" viewBox="0 0 261 73"><path fill="#D71920" d="M73.392 36.697c0 20.279-16.43 36.697-36.696 36.697C16.433 73.395 0 56.976 0 36.697 0 16.433 16.433 0 36.696 0c20.266 0 36.696 16.433 36.696 36.697z"/><g fill="#FFF"><path d="M20.684 18.933v12.591c1.917-2.285 4.214-3.436 6.88-3.436 1.372 0 2.603.261 3.704.782 1.106.516 1.934 1.18 2.491 1.985a7.265 7.265 0 0 1 1.145 2.684c.204.975.306 2.495.306 4.555v13.464h-5.957V39.432c0-2.406-.108-3.931-.335-4.577a2.964 2.964 0 0 0-1.196-1.542c-.573-.387-1.287-.578-2.149-.578-.987 0-1.873.248-2.642.737-.785.493-1.351 1.23-1.708 2.217-.364.987-.546 2.444-.539 4.373l-.007 11.497h-5.948V18.933h5.955zM44.138 18.933v12.591c1.917-2.285 4.213-3.436 6.878-3.436 1.368 0 2.604.261 3.711.782 1.1.516 1.928 1.18 2.484 1.985a7.249 7.249 0 0 1 1.145 2.684c.204.975.306 2.495.306 4.555v13.464h-5.95V39.432c0-2.406-.112-3.931-.34-4.577a2.948 2.948 0 0 0-1.198-1.542c-.567-.387-1.287-.578-2.149-.578-.987 0-1.871.248-2.642.737-.777.493-1.344 1.23-1.707 2.217-.357.987-.539 2.444-.539 4.373v11.497h-5.951V18.933h5.952z"/></g><g fill="#FFF"><path opacity=".97" d="M94.665 18.591v13.873h16.037V18.591h4.329v33.157h-4.329V36.202H94.665v15.546h-4.279V18.591h4.279zM122.456 19.033c2.164-.442 5.264-.688 8.215-.688 4.575 0 7.527.836 9.593 2.706 1.673 1.476 2.607 3.739 2.607 6.297 0 4.378-2.755 7.281-6.247 8.461v.147c2.558.886 4.083 3.247 4.87 6.69 1.082 4.625 1.869 7.822 2.558 9.102h-4.428c-.541-.935-1.278-3.788-2.213-7.921-.984-4.575-2.756-6.297-6.642-6.444h-4.034v14.365h-4.279V19.033zm4.279 15.103h4.379c4.574 0 7.477-2.509 7.477-6.297 0-4.28-3.099-6.149-7.625-6.198-2.065 0-3.542.197-4.23.394l-.001 12.101zM148.182 47.32c1.279.836 3.542 1.722 5.706 1.722 3.148 0 4.625-1.574 4.625-3.542 0-2.066-1.23-3.197-4.428-4.378-4.28-1.525-6.297-3.887-6.297-6.74 0-3.837 3.1-6.985 8.215-6.985 2.411 0 4.526.688 5.854 1.476l-1.082 3.148c-.935-.59-2.656-1.377-4.87-1.377-2.559 0-3.985 1.476-3.985 3.247 0 1.968 1.427 2.853 4.526 4.034 4.132 1.574 6.248 3.641 6.248 7.183 0 4.182-3.247 7.133-8.904 7.133-2.607 0-5.019-.639-6.69-1.623l1.082-3.298zM168.25 35.71c0-3.05-.098-5.51-.196-7.772h3.887l.196 4.083h.099c1.771-2.902 4.575-4.624 8.461-4.624 5.756 0 10.085 4.87 10.085 12.102 0 8.561-5.215 12.791-10.822 12.791-3.148 0-5.903-1.378-7.33-3.739h-.099v12.938h-4.28l-.001-25.779zm4.28 6.347c0 .64.099 1.229.197 1.771.787 3.001 3.394 5.067 6.493 5.067 4.575 0 7.231-3.739 7.231-9.199 0-4.772-2.509-8.855-7.084-8.855-2.951 0-5.706 2.115-6.543 5.362-.147.541-.295 1.181-.295 1.771l.001 4.083zM209.422 51.748l-.345-3.001h-.147c-1.328 1.869-3.886 3.542-7.28 3.542-4.821 0-7.281-3.395-7.281-6.838 0-5.756 5.116-8.905 14.315-8.855v-.492c0-1.968-.541-5.51-5.411-5.51-2.214 0-4.525.689-6.198 1.771l-.984-2.854c1.968-1.279 4.821-2.115 7.822-2.115 7.28 0 9.052 4.969 9.052 9.74v8.904c0 2.066.099 4.083.394 5.707l-3.937.001zm-.64-12.151c-4.723-.099-10.085.738-10.085 5.362 0 2.804 1.869 4.132 4.083 4.132 3.1 0 5.067-1.968 5.756-3.984.147-.442.246-.935.246-1.377v-4.133zM236.919 50.862c-1.132.59-3.641 1.377-6.838 1.377-7.183 0-11.856-4.87-11.856-12.15 0-7.33 5.019-12.644 12.791-12.644 2.558 0 4.821.64 6.001 1.23l-.983 3.345c-1.033-.59-2.656-1.131-5.018-1.131-5.461 0-8.412 4.034-8.412 9.002 0 5.51 3.542 8.904 8.265 8.904 2.459 0 4.083-.64 5.313-1.181l.737 3.248zM244.099 40.63c.098 5.854 3.837 8.265 8.166 8.265 3.1 0 4.969-.541 6.592-1.229l.738 3.099c-1.525.688-4.133 1.476-7.92 1.476-7.33 0-11.709-4.82-11.709-12.003s4.23-12.84 11.167-12.84c7.773 0 9.839 6.838 9.839 11.217 0 .885-.098 1.574-.147 2.017h-16.726v-.002zm12.691-3.1c.05-2.755-1.131-7.035-6.001-7.035-4.379 0-6.297 4.034-6.642 7.035h12.643z"/></g></svg>